# xmcd
#
# Track frame offsets:
#	200
#	13265
#	32677
#	45117
#	60687
#	67160
#	85417
#	95460
#	108332
#	127140
#	141510
#	155635
#
# Disc length: 2304 seconds
#
# Revision: 1
# Processed by: cddbd v1.4PL0 Copyright (c) Steve Scherf et al.
# Submitted via: EasyCDDAExtractor 5.0.7
#
DISCID=aa08fe0c
DTITLE=Good Ol' Persons - Part of a Story
DYEAR=1900
DGENRE=Bluegrass
TTITLE0=Broken Hearted Lover
TTITLE1=Easy Substitute
TTITLE2=My My My
TTITLE3=I Don't Hurt Anymore
TTITLE4=Center of the World
TTITLE5=Cgrey Eagle
TTITLE6=It's Gonna Rain
TTITLE7=Ypu're a Flower
TTITLE8=Crossing the Cumberlands
TTITLE9=It Seems There's Nothing I Can Do
TTITLE10=This Young Boy
TTITLE11=Part of a Story
EXTD=
EXTT0=
EXTT1=
EXTT2=
EXTT3=
EXTT4=
EXTT5=
EXTT6=
EXTT7=
EXTT8=
EXTT9=
EXTT10=
EXTT11=
PLAYORDER=
